<?xml version="1.0" encoding="iso-8859-1"?>
<!-- Generator: Adobe Illustrator 16.0.0, SVG Export Plug-In . SVG Version: 6.00 Build 0)  -->
<!DOCTYPE svg PUBLIC "-//W3C//DTD SVG 1.1//EN" "http://www.w3.org/Graphics/SVG/1.1/DTD/svg11.dtd">
<svg version="1.1" id="Capa_1" xmlns="http://www.w3.org/2000/svg" xmlns:xlink="http://www.w3.org/1999/xlink" x="0px" y="0px"
	 width="58.36px" height="58.36px" viewBox="0 0 58.36 58.36" style="enable-background:new 0 0 58.36 58.36;" xml:space="preserve"
	>
<g>
	<g>
		<path d="M11.225,33.564c0.207,0,0.342-0.107,0.406-0.323c0.063-0.216,0.096-0.527,0.096-0.934c0-0.428-0.032-0.743-0.096-0.948
			c-0.064-0.205-0.2-0.308-0.406-0.308c-0.206,0-0.344,0.104-0.411,0.308c-0.066,0.205-0.1,0.521-0.1,0.948
			c0,0.406,0.033,0.717,0.1,0.934C10.881,33.457,11.019,33.564,11.225,33.564z"/>
		<path d="M25.127,33.564c0.206,0,0.341-0.107,0.406-0.323c0.063-0.216,0.096-0.527,0.096-0.934c0-0.428-0.033-0.743-0.096-0.948
			c-0.064-0.205-0.2-0.308-0.406-0.308c-0.207,0-0.344,0.104-0.411,0.308c-0.066,0.205-0.1,0.521-0.1,0.948
			c0,0.406,0.034,0.717,0.1,0.934C24.784,33.457,24.92,33.564,25.127,33.564z"/>
		<path d="M8.445,31.052c-0.207,0-0.344,0.104-0.41,0.308c-0.067,0.205-0.101,0.521-0.101,0.948c0,0.406,0.034,0.717,0.101,0.934
			c0.066,0.216,0.204,0.323,0.41,0.323c0.206,0,0.342-0.107,0.406-0.323c0.064-0.216,0.096-0.527,0.096-0.934
			c0-0.428-0.032-0.743-0.096-0.948C8.787,31.155,8.651,31.052,8.445,31.052z"/>
		<path d="M5.664,33.564c0.206,0,0.342-0.107,0.406-0.323c0.063-0.216,0.096-0.527,0.096-0.934c0-0.428-0.032-0.743-0.096-0.948
			c-0.064-0.205-0.2-0.308-0.406-0.308c-0.207,0-0.344,0.104-0.41,0.308c-0.067,0.205-0.101,0.521-0.101,0.948
			c0,0.406,0.034,0.717,0.101,0.934C5.321,33.457,5.457,33.564,5.664,33.564z"/>
		<path d="M8.532,39.101l-0.128,0.024c-0.12,0.021-0.206,0.047-0.258,0.077c-0.089,0.051-0.132,0.13-0.132,0.238
			c0,0.096,0.027,0.164,0.081,0.207s0.12,0.065,0.198,0.065c0.123,0,0.235-0.034,0.339-0.105s0.157-0.201,0.162-0.389v-0.21
			c-0.036,0.022-0.072,0.041-0.109,0.054C8.647,39.076,8.597,39.088,8.532,39.101z"/>
		<path d="M14.006,33.564c0.207,0,0.342-0.107,0.406-0.323c0.063-0.216,0.096-0.527,0.096-0.934c0-0.428-0.032-0.743-0.096-0.948
			c-0.064-0.205-0.2-0.308-0.406-0.308c-0.206,0-0.344,0.104-0.411,0.308c-0.066,0.205-0.1,0.521-0.1,0.948
			c0,0.406,0.033,0.717,0.1,0.934C13.663,33.457,13.799,33.564,14.006,33.564z"/>
		<path d="M14.329,38.309c-0.144,0-0.256,0.041-0.335,0.124c-0.08,0.082-0.129,0.192-0.15,0.332h0.968
			c-0.01-0.148-0.06-0.263-0.15-0.34C14.573,38.35,14.461,38.309,14.329,38.309z"/>
		<path d="M19.565,31.052c-0.206,0-0.343,0.104-0.411,0.308c-0.066,0.205-0.1,0.521-0.1,0.948c0,0.406,0.033,0.717,0.1,0.934
			c0.067,0.216,0.205,0.323,0.411,0.323c0.207,0,0.342-0.107,0.406-0.323c0.064-0.216,0.096-0.527,0.096-0.934
			c0-0.428-0.032-0.743-0.096-0.948C19.907,31.155,19.772,31.052,19.565,31.052z"/>
		<path d="M22.074,39.101l-0.128,0.024c-0.12,0.021-0.206,0.047-0.258,0.077c-0.088,0.051-0.132,0.13-0.132,0.238
			c0,0.096,0.027,0.164,0.082,0.207c0.054,0.043,0.12,0.065,0.198,0.065c0.123,0,0.235-0.034,0.34-0.105
			c0.104-0.071,0.157-0.201,0.161-0.389v-0.21c-0.036,0.022-0.072,0.041-0.109,0.054C22.188,39.076,22.139,39.088,22.074,39.101z"/>
		<path d="M27.908,31.052c-0.207,0-0.344,0.104-0.411,0.308c-0.067,0.205-0.1,0.521-0.1,0.948c0,0.406,0.033,0.717,0.1,0.934
			c0.066,0.216,0.204,0.323,0.411,0.323c0.206,0,0.342-0.107,0.406-0.323c0.063-0.216,0.096-0.527,0.096-0.934
			c0-0.428-0.033-0.743-0.096-0.948C28.25,31.155,28.113,31.052,27.908,31.052z"/>
		<path d="M27.871,38.309c-0.144,0-0.256,0.041-0.335,0.124c-0.079,0.082-0.129,0.192-0.15,0.332h0.967
			c-0.01-0.148-0.06-0.263-0.15-0.34C28.114,38.35,28.003,38.309,27.871,38.309z"/>
		<path d="M22.346,31.052c-0.206,0-0.343,0.104-0.41,0.308c-0.066,0.205-0.1,0.521-0.1,0.948c0,0.406,0.034,0.717,0.1,0.934
			c0.067,0.216,0.204,0.323,0.41,0.323c0.207,0,0.342-0.107,0.406-0.323c0.063-0.216,0.096-0.527,0.096-0.934
			c0-0.428-0.033-0.743-0.096-0.948C22.688,31.155,22.553,31.052,22.346,31.052z"/>
		<path d="M3.897,44.641h27.271c0.018-0.019,0.029-0.041,0.047-0.058l0.985-0.984l1.041-1.042l2.504-2.503l-4.53-4.53
			c-0.812-0.812-0.812-2.132,0-2.945l4.972-4.971c0.391-0.391,0.921-0.61,1.473-0.61s1.083,0.22,1.474,0.61l4.528,4.529l4.528-4.529
			c0.391-0.391,0.922-0.61,1.474-0.61s1.082,0.22,1.473,0.61l4.971,4.971c0.064,0.064,0.118,0.139,0.171,0.209
			c0.573,0.747,0.573,1.782,0,2.529c-0.053,0.071-0.106,0.144-0.171,0.209l-4.529,4.529l2.504,2.502l0.978,0.978l0.826,0.826
			c1.446-0.576,2.476-1.999,2.476-3.667V11.282c0-2.177-1.749-3.948-3.896-3.948H3.897C1.749,7.333,0,9.104,0,11.282v29.41
			C0,42.868,1.749,44.641,3.897,44.641z M27.597,39.59c0.085,0.054,0.19,0.08,0.311,0.08c0.128,0,0.231-0.032,0.311-0.1
			c0.044-0.034,0.083-0.083,0.115-0.146h0.575c-0.015,0.126-0.084,0.257-0.209,0.389c-0.192,0.209-0.462,0.313-0.808,0.313
			c-0.286,0-0.539-0.09-0.757-0.265c-0.219-0.177-0.328-0.463-0.328-0.86c0-0.373,0.099-0.657,0.296-0.856
			c0.198-0.2,0.453-0.299,0.768-0.299c0.188,0,0.355,0.034,0.505,0.102c0.15,0.066,0.274,0.173,0.372,0.317
			c0.089,0.128,0.145,0.276,0.171,0.445c0.016,0.099,0.022,0.24,0.019,0.425h-1.565C27.38,39.351,27.455,39.503,27.597,39.59z
			 M28.855,33.658c-0.181,0.315-0.498,0.472-0.947,0.472c-0.451,0-0.767-0.156-0.949-0.472c-0.181-0.315-0.273-0.766-0.273-1.351
			c0-0.584,0.091-1.036,0.273-1.352c0.181-0.318,0.498-0.476,0.949-0.476c0.449,0,0.765,0.157,0.947,0.476
			c0.182,0.315,0.273,0.768,0.273,1.352C29.128,32.893,29.037,33.341,28.855,33.658z M25.839,38.484
			c-0.05-0.101-0.142-0.151-0.275-0.151c-0.155,0-0.263,0.065-0.322,0.193c-0.03,0.069-0.046,0.15-0.046,0.246v1.281h-0.564v-1.281
			c0-0.126-0.014-0.22-0.04-0.277c-0.048-0.104-0.141-0.155-0.278-0.155c-0.16,0-0.268,0.051-0.323,0.155
			c-0.03,0.061-0.045,0.147-0.045,0.265v1.294h-0.57v-2.146h0.546v0.313c0.07-0.112,0.135-0.191,0.197-0.239
			c0.109-0.084,0.25-0.125,0.424-0.125c0.164,0,0.296,0.035,0.399,0.107c0.081,0.067,0.143,0.153,0.186,0.259
			c0.074-0.126,0.164-0.22,0.273-0.279c0.116-0.059,0.245-0.087,0.387-0.087c0.095,0,0.188,0.019,0.28,0.055
			c0.091,0.037,0.175,0.101,0.25,0.192c0.06,0.074,0.101,0.168,0.122,0.275c0.013,0.072,0.02,0.18,0.02,0.317l-0.004,1.355h-0.577
			v-1.369C25.879,38.604,25.866,38.536,25.839,38.484z M22.243,38.354c-0.062-0.032-0.153-0.049-0.273-0.049
			c-0.134,0-0.23,0.033-0.286,0.099c-0.04,0.049-0.067,0.115-0.08,0.196h-0.542c0.012-0.188,0.064-0.342,0.159-0.464
			c0.148-0.187,0.405-0.282,0.769-0.282c0.236,0,0.446,0.047,0.63,0.14c0.184,0.094,0.275,0.27,0.275,0.527v0.986
			c0,0.069,0.001,0.152,0.004,0.25c0.004,0.074,0.015,0.124,0.033,0.149c0.019,0.026,0.046,0.049,0.083,0.065v0.083h-0.612
			c-0.017-0.044-0.029-0.085-0.035-0.122c-0.006-0.039-0.011-0.081-0.016-0.13c-0.078,0.084-0.167,0.156-0.27,0.214
			c-0.122,0.07-0.259,0.105-0.413,0.105c-0.196,0-0.357-0.057-0.485-0.167c-0.127-0.112-0.192-0.269-0.192-0.472
			c0-0.265,0.102-0.456,0.307-0.574c0.112-0.065,0.278-0.111,0.497-0.139l0.193-0.023c0.104-0.013,0.179-0.029,0.224-0.05
			c0.081-0.033,0.121-0.087,0.121-0.158C22.336,38.448,22.306,38.389,22.243,38.354z M22.346,34.13
			c-0.451,0-0.767-0.156-0.949-0.472c-0.182-0.315-0.273-0.766-0.273-1.351c0-0.584,0.09-1.036,0.273-1.352
			c0.181-0.318,0.498-0.476,0.949-0.476c0.45,0,0.766,0.157,0.948,0.476c0.181,0.315,0.273,0.768,0.273,1.352
			c0,0.585-0.091,1.035-0.273,1.351C23.113,33.974,22.797,34.13,22.346,34.13z M23.905,32.308c0-0.584,0.091-1.036,0.273-1.352
			c0.181-0.318,0.498-0.476,0.949-0.476c0.45,0,0.765,0.157,0.947,0.476c0.182,0.315,0.273,0.768,0.273,1.352
			c0,0.585-0.091,1.035-0.273,1.351c-0.181,0.315-0.498,0.472-0.947,0.472c-0.451,0-0.767-0.156-0.949-0.472
			C23.996,33.341,23.905,32.892,23.905,32.308z M20.514,33.658c-0.181,0.315-0.497,0.472-0.948,0.472
			c-0.451,0-0.767-0.156-0.949-0.472c-0.181-0.315-0.273-0.766-0.273-1.351c0-0.584,0.09-1.036,0.273-1.352
			c0.181-0.318,0.498-0.476,0.949-0.476c0.45,0,0.766,0.157,0.948,0.476c0.181,0.315,0.273,0.768,0.273,1.352
			C20.787,32.893,20.695,33.341,20.514,33.658z M20.615,37.147v2.906h-0.607l-1.184-2.062v2.062h-0.565v-2.906h0.636l1.155,2.026
			v-2.026H20.615z M14.055,39.59c0.085,0.054,0.189,0.08,0.311,0.08c0.128,0,0.232-0.032,0.312-0.1
			c0.043-0.034,0.082-0.083,0.115-0.146h0.574c-0.015,0.126-0.084,0.257-0.208,0.389c-0.193,0.209-0.462,0.313-0.808,0.313
			c-0.287,0-0.539-0.09-0.757-0.265c-0.219-0.177-0.328-0.463-0.328-0.86c0-0.373,0.099-0.657,0.296-0.856
			c0.198-0.2,0.453-0.299,0.769-0.299c0.188,0,0.355,0.034,0.505,0.102c0.15,0.066,0.274,0.173,0.372,0.317
			c0.089,0.128,0.145,0.276,0.171,0.445c0.016,0.099,0.022,0.24,0.019,0.425H13.83C13.838,39.351,13.914,39.503,14.055,39.59z
			 M12.298,38.484c-0.05-0.101-0.142-0.151-0.276-0.151c-0.155,0-0.262,0.065-0.322,0.193c-0.03,0.069-0.046,0.15-0.046,0.246v1.281
			H11.09v-1.281c0-0.126-0.014-0.22-0.04-0.277c-0.048-0.104-0.141-0.155-0.278-0.155c-0.16,0-0.268,0.051-0.323,0.155
			c-0.03,0.061-0.044,0.147-0.044,0.265v1.294h-0.57v-2.146h0.546v0.313c0.069-0.112,0.135-0.191,0.197-0.239
			c0.109-0.084,0.25-0.125,0.424-0.125c0.164,0,0.296,0.035,0.398,0.107c0.082,0.067,0.143,0.153,0.186,0.259
			c0.074-0.126,0.165-0.22,0.274-0.279c0.116-0.059,0.245-0.087,0.386-0.087c0.095,0,0.188,0.019,0.28,0.055
			c0.092,0.037,0.175,0.101,0.25,0.192c0.06,0.074,0.101,0.168,0.122,0.275c0.013,0.072,0.02,0.18,0.02,0.317l-0.004,1.355h-0.576
			v-1.369C12.337,38.604,12.324,38.536,12.298,38.484z M8.701,38.354c-0.062-0.032-0.153-0.049-0.273-0.049
			c-0.134,0-0.23,0.033-0.287,0.099c-0.04,0.049-0.066,0.115-0.079,0.196H7.52c0.012-0.188,0.065-0.342,0.159-0.464
			c0.148-0.187,0.405-0.282,0.769-0.282c0.237,0,0.446,0.047,0.63,0.14c0.184,0.094,0.275,0.27,0.275,0.527v0.986
			c0,0.069,0.001,0.152,0.004,0.25c0.004,0.074,0.015,0.124,0.033,0.149c0.019,0.026,0.046,0.049,0.083,0.065v0.083H8.86
			c-0.017-0.044-0.029-0.085-0.036-0.122c-0.006-0.039-0.011-0.081-0.015-0.13c-0.078,0.084-0.168,0.156-0.27,0.214
			c-0.122,0.07-0.259,0.105-0.413,0.105c-0.196,0-0.357-0.057-0.485-0.167c-0.127-0.112-0.191-0.269-0.191-0.472
			c0-0.265,0.102-0.456,0.307-0.574c0.112-0.065,0.278-0.111,0.497-0.139l0.192-0.023c0.104-0.013,0.179-0.029,0.224-0.05
			c0.08-0.033,0.121-0.087,0.121-0.158C8.795,38.448,8.764,38.389,8.701,38.354z M9.393,33.658C9.21,33.974,8.895,34.13,8.445,34.13
			c-0.451,0-0.767-0.156-0.949-0.472c-0.181-0.315-0.272-0.766-0.272-1.351c0-0.584,0.09-1.036,0.272-1.352
			c0.182-0.318,0.497-0.476,0.949-0.476c0.45,0,0.766,0.157,0.948,0.476c0.181,0.315,0.272,0.768,0.272,1.352
			C9.666,32.893,9.574,33.341,9.393,33.658z M6.152,22.24v-2.074h2.094v2.121H6.158C6.158,22.271,6.152,22.256,6.152,22.24z
			 M14.326,22.24c0,0.016-0.004,0.031-0.005,0.046h-2.09v-2.121h2.095V22.24z M12.231,23.379h1.863
			c-0.338,0.795-1.025,1.397-1.863,1.646V23.379z M11.687,19.074L11.687,19.074l-0.547,0.001v3.212h-1.8v-5.302h2.069
			c1.319,0,2.424,0.886,2.784,2.088H11.687z M8.247,19.074H6.288c0.281-0.94,1.018-1.676,1.959-1.955V19.074z M8.247,23.379v1.646
			c-0.838-0.249-1.524-0.851-1.863-1.646H8.247z M9.338,23.379h1.8v1.779h-1.8V23.379z M11.225,30.479
			c0.45,0,0.766,0.158,0.948,0.476c0.181,0.317,0.272,0.769,0.272,1.354c0,0.584-0.091,1.033-0.272,1.349
			c-0.183,0.315-0.498,0.474-0.948,0.474c-0.451,0-0.767-0.158-0.949-0.474c-0.181-0.315-0.272-0.765-0.272-1.349
			c0-0.585,0.09-1.036,0.272-1.354C10.458,30.637,10.774,30.479,11.225,30.479z M5.664,30.479c0.45,0,0.766,0.158,0.948,0.476
			c0.182,0.317,0.273,0.769,0.273,1.354c0,0.584-0.09,1.033-0.273,1.349c-0.182,0.315-0.498,0.474-0.948,0.474
			c-0.451,0-0.767-0.158-0.949-0.474c-0.181-0.315-0.273-0.765-0.273-1.349c0-0.585,0.091-1.036,0.273-1.354
			C4.896,30.637,5.212,30.479,5.664,30.479z M4.717,37.147h0.636l1.154,2.026v-2.026h0.566v2.906H6.466l-1.184-2.062v2.062H4.717
			V37.147z M12.785,32.308c0-0.584,0.09-1.036,0.272-1.352c0.182-0.318,0.497-0.476,0.949-0.476c0.45,0,0.765,0.157,0.948,0.476
			c0.182,0.315,0.273,0.768,0.273,1.352c0,0.585-0.091,1.035-0.273,1.351c-0.181,0.315-0.497,0.472-0.948,0.472
			s-0.767-0.156-0.949-0.472C12.875,33.341,12.785,32.892,12.785,32.308z M47.988,22.929c-0.824,0-1.595-0.203-2.293-0.537
			c-0.848,0.539-1.846,0.863-2.923,0.863c-3.025,0-5.485-2.46-5.485-5.484c0-3.023,2.46-5.483,5.485-5.483
			c0.936,0,1.806,0.258,2.577,0.674c0.781-0.447,1.675-0.725,2.637-0.725c2.948,0,5.347,2.398,5.347,5.346
			S50.936,22.929,47.988,22.929z"/>
		<path d="M43.697,17.441h-0.521h-0.521c0.007-0.237,0.034-0.469,0.071-0.697h0.521h0.521h2.931
			c-0.054-0.288-0.139-0.563-0.244-0.83h-2.434h-0.543h-0.543c0.083-0.248,0.179-0.485,0.294-0.716h0.588h0.592h1.684
			c-0.184-0.299-0.388-0.581-0.631-0.83h-0.309h-0.74h-0.669c0.197-0.261,0.415-0.501,0.655-0.721
			c-0.505-0.2-1.052-0.319-1.627-0.319c-2.451,0-4.443,1.993-4.443,4.441c0,2.449,1.992,4.442,4.443,4.442
			c0.689,0,1.335-0.172,1.918-0.454c-0.188-0.149-0.375-0.299-0.543-0.472h0.782h0.051c0.129-0.101,0.229-0.234,0.345-0.348
			c0.163-0.157,0.34-0.301,0.479-0.481h-0.997H44.13h-0.637c-0.131-0.205-0.246-0.419-0.348-0.641h0.588h0.592h1.889
			c0.142-0.264,0.256-0.54,0.346-0.829h-2.623h-0.543h-0.542c-0.063-0.233-0.109-0.472-0.142-0.717h0.521h0.521h2.968
			c0.03-0.214,0.065-0.427,0.065-0.65c0-0.062-0.017-0.119-0.019-0.179L43.697,17.441L43.697,17.441z"/>
		<polygon points="35.146,43.599 34.105,44.641 32.689,46.056 37.659,51.026 43.663,45.024 49.665,51.026 54.634,46.056 
			53.22,44.641 52.178,43.599 51.136,42.557 48.633,40.054 54.634,34.051 49.665,29.08 43.663,35.082 37.659,29.08 32.689,34.051 
			38.69,40.054 36.188,42.557 		"/>
	</g>
</g>
<g>
</g>
<g>
</g>
<g>
</g>
<g>
</g>
<g>
</g>
<g>
</g>
<g>
</g>
<g>
</g>
<g>
</g>
<g>
</g>
<g>
</g>
<g>
</g>
<g>
</g>
<g>
</g>
<g>
</g>
</svg>
